<?xml version="1.0" standalone="no"?>
<!DOCTYPE svg PUBLIC "-//W3C//DTD SVG 20010904//EN"
 "http://www.w3.org/TR/2001/REC-SVG-20010904/DTD/svg10.dtd">
<svg version="1.0" xmlns="http://www.w3.org/2000/svg"
 width="679.000000pt" height="368.000000pt" viewBox="0 0 679.000000 368.000000"
 preserveAspectRatio="xMidYMid meet">

<g transform="translate(0.000000,368.000000) scale(0.100000,-0.100000)"
fill="#000000" stroke="none">
<path d="M1745 3334 c-66 -53 -130 -101 -141 -106 -17 -8 -35 -2 -95 31 -175
98 -197 106 -289 106 -70 -1 -93 -5 -130 -25 -37 -20 -60 -24 -130 -25 -75 0
-93 -4 -150 -32 -106 -52 -119 -55 -158 -42 -30 10 -89 42 -177 96 -11 7 -33
19 -50 28 -16 8 -37 20 -46 27 -20 14 -49 4 -49 -17 0 -17 76 -68 183 -122 15
-8 27 -19 27 -26 0 -9 -27 -53 -92 -149 -10 -15 -18 -30 -18 -33 0 -3 -15 -27
-32 -53 -39 -56 -41 -61 -109 -172 -78 -127 -74 -124 -120 -94 -44 28 -64 30
-73 9 -7 -19 5 -29 123 -100 l100 -60 -2 -69 c-2 -68 -2 -69 36 -101 21 -18
53 -36 72 -39 26 -5 35 -13 40 -34 12 -57 51 -83 144 -95 7 -1 21 -22 31 -46
19 -49 64 -80 118 -81 25 0 35 -6 41 -23 11 -29 64 -75 96 -83 16 -4 43 4 80
22 50 26 58 27 88 15 123 -49 113 -47 161 -23 32 15 51 33 66 61 19 38 21 40
50 29 64 -22 138 14 161 77 13 34 15 35 66 35 46 0 56 4 87 35 23 22 36 46 38
67 3 31 5 33 50 38 74 9 111 54 109 136 0 47 -9 39 177 163 87 58 122 87 122
101 0 29 -29 25 -81 -10 -24 -16 -48 -29 -54 -29 -5 0 -75 99 -155 220 -80
121 -151 225 -157 231 -32 26 -13 53 92 131 58 44 105 83 105 87 0 18 -13 40
-24 40 -6 0 -65 -44 -131 -96z m-448 -33 c32 -10 78 -30 103 -44 121 -69 171
-89 206 -84 32 5 36 3 69 -46 19 -29 41 -61 49 -72 8 -11 45 -67 83 -124 37
-57 85 -129 105 -160 55 -82 55 -81 22 -108 -45 -37 -102 -73 -117 -73 -7 0
-31 15 -53 33 -77 65 -406 323 -491 385 -110 79 -139 82 -211 20 -144 -125
-161 -137 -198 -138 -39 0 -84 34 -84 63 0 35 31 76 136 181 111 111 155 142
234 167 70 23 76 23 147 0z m-337 -39 c0 -5 -28 -36 -62 -69 -131 -127 -168
-180 -168 -243 0 -35 6 -48 35 -77 34 -34 37 -35 99 -31 68 4 94 19 201 118
80 74 86 76 137 37 24 -18 93 -71 153 -117 61 -47 116 -90 123 -97 7 -7 41
-34 75 -60 34 -26 67 -52 74 -58 6 -5 29 -23 50 -40 76 -60 133 -118 133 -136
0 -9 -12 -31 -26 -48 -31 -37 -72 -41 -112 -12 -26 18 -221 171 -291 228 -41
33 -75 37 -78 8 -2 -14 13 -32 51 -60 289 -216 320 -248 283 -296 -33 -43 -88
-50 -134 -16 -16 12 -43 31 -58 42 -15 11 -35 27 -44 36 -9 8 -36 31 -61 49
-61 47 -61 47 -95 75 -16 14 -39 24 -50 23 -39 -6 -27 -34 32 -78 32 -24 60
-46 63 -49 3 -4 40 -33 82 -65 43 -32 80 -67 84 -78 9 -30 -15 -75 -48 -89
-26 -11 -35 -9 -71 10 -23 12 -78 48 -122 81 -150 112 -153 114 -170 100 -8
-7 -15 -16 -15 -21 0 -5 50 -46 110 -91 101 -75 110 -84 110 -114 0 -64 -71
-83 -146 -39 -40 23 -42 27 -37 60 3 18 3 45 -1 59 -8 33 -52 74 -88 81 -26 6
-28 10 -28 54 0 64 -37 102 -108 109 -47 4 -50 6 -61 42 -6 21 -26 51 -43 65
-29 25 -38 27 -90 22 -48 -4 -58 -2 -63 12 -3 10 -19 30 -35 46 -38 37 -105
40 -150 7 -16 -12 -37 -22 -47 -22 -21 0 -93 46 -93 60 0 4 11 22 25 38 14 17
25 33 25 36 0 3 19 35 42 70 24 36 61 93 82 128 141 226 158 250 180 242 12
-4 46 -8 76 -8 44 0 65 6 107 31 60 37 163 65 163 45z m-443 -664 c14 -13 23
-33 23 -50 0 -34 -42 -100 -75 -118 -33 -17 -79 2 -95 40 -10 23 -8 34 9 68
24 46 65 82 94 82 11 0 31 -10 44 -22z m188 -84 c53 -35 39 -95 -43 -186 -28
-31 -41 -38 -72 -38 -30 0 -43 6 -60 27 -27 35 -21 62 32 131 65 84 95 98 143
66z m188 -146 c13 -17 18 -34 14 -50 -10 -35 -106 -147 -134 -154 -53 -14
-101 37 -87 91 3 13 31 51 61 85 50 55 59 61 91 58 24 -2 41 -11 55 -30z m101
-149 c39 -30 35 -69 -12 -119 -43 -44 -82 -52 -114 -23 -24 21 -23 48 4 92 44
72 77 85 122 50z"/>
<path d="M730 1320 l0 -410 80 0 80 0 0 170 0 170 180 0 180 0 0 -170 0 -171
83 3 82 3 0 405 0 405 -82 3 -83 3 -2 -168 -3 -168 -175 0 -175 0 -3 168 -2
167 -80 0 -80 0 0 -410z"/>
<path d="M3340 1320 l0 -410 80 0 80 0 0 410 0 410 -80 0 -80 0 0 -410z"/>
<path d="M2930 1600 l0 -70 -40 0 -40 0 0 -65 0 -65 40 0 40 0 0 -186 c0 -215
6 -239 75 -279 34 -21 55 -25 116 -25 101 0 105 4 87 76 -13 57 -15 59 -43 56
-17 -2 -39 4 -50 12 -19 13 -20 26 -20 178 l0 163 58 3 57 3 0 64 0 65 -54 0
c-62 0 -66 5 -66 86 l0 54 -80 0 -80 0 0 -70z"/>
<path d="M2450 1534 c-115 -22 -184 -75 -196 -149 -18 -123 35 -188 175 -215
82 -15 146 -33 159 -43 19 -15 14 -62 -9 -83 -15 -14 -36 -19 -76 -19 -51 0
-58 3 -88 37 l-32 38 -77 -6 c-42 -4 -76 -11 -76 -16 0 -18 39 -84 62 -104 54
-50 104 -65 209 -66 104 0 160 17 217 66 34 30 62 89 62 133 0 85 -74 141
-219 169 -98 19 -145 43 -149 76 -4 34 39 61 94 61 46 0 94 -25 94 -48 0 -12
16 -15 75 -15 87 0 96 8 69 65 -20 44 -67 83 -120 101 -44 15 -137 25 -174 18z"/>
<path d="M3865 1534 c-87 -22 -117 -38 -164 -90 -57 -62 -81 -128 -81 -222 0
-139 49 -231 152 -285 52 -27 65 -29 152 -29 86 1 102 4 148 29 54 29 118 101
118 133 0 16 -10 19 -72 22 -65 3 -75 1 -93 -18 -29 -32 -58 -44 -107 -44 -71
1 -123 45 -130 110 l-3 35 209 3 209 2 -6 74 c-15 168 -106 264 -267 280 -25
3 -54 2 -65 0z m103 -139 c40 -16 72 -58 72 -94 0 -21 -3 -22 -127 -19 l-128
3 3 24 c6 37 42 80 77 90 44 13 60 13 103 -4z"/>
<path d="M1560 1302 c0 -268 7 -296 87 -357 41 -32 52 -35 110 -35 78 0 133
25 166 75 12 19 25 35 30 35 4 0 7 -25 7 -55 l0 -56 78 3 77 3 0 305 0 305
-80 0 -80 0 -5 -200 c-3 -136 -9 -207 -18 -222 -31 -54 -121 -70 -169 -29
l-28 24 -5 214 -5 213 -82 3 -83 3 0 -229z"/>
<path d="M6300 1021 c0 -6 4 -13 10 -16 6 -3 7 1 4 9 -7 18 -14 21 -14 7z"/>
<path d="M1686 469 c-14 -11 -26 -31 -26 -43 0 -25 48 -76 71 -76 22 0 59 -42
59 -66 0 -30 -20 -44 -62 -44 -27 0 -41 6 -50 20 -14 22 -28 26 -28 10 0 -21
53 -60 80 -60 42 0 80 35 80 73 0 41 -4 46 -67 86 -40 25 -53 39 -53 57 0 36
41 52 75 30 35 -23 47 -10 15 14 -32 25 -61 25 -94 -1z"/>
<path d="M1950 345 l0 -136 67 3 c42 2 68 8 71 16 3 9 -13 12 -57 12 l-61 0 0
120 c0 73 -4 120 -10 120 -6 0 -10 -52 -10 -135z"/>
<path d="M2220 344 c0 -87 4 -133 10 -129 6 4 10 60 10 136 0 79 -4 129 -10
129 -6 0 -10 -52 -10 -136z"/>
<path d="M2390 351 c0 -76 4 -132 10 -136 6 -4 10 42 10 129 0 84 -4 136 -10
136 -6 0 -10 -50 -10 -129z"/>
<path d="M2552 469 c10 -5 24 -9 30 -8 47 6 47 5 50 -123 2 -86 7 -123 16
-126 9 -3 12 26 12 122 0 134 -2 130 52 126 14 -1 29 3 33 9 4 8 -28 11 -102
11 -78 -1 -103 -3 -91 -11z"/>
<path d="M3050 344 c0 -104 3 -135 13 -132 8 3 14 40 17 119 l5 114 18 -50
c10 -27 24 -66 32 -85 7 -19 16 -43 19 -52 11 -34 34 -18 56 40 12 31 30 76
39 99 l16 43 5 -112 c3 -76 9 -113 18 -116 9 -3 12 28 12 132 l0 136 -25 0
c-20 0 -27 -8 -39 -47 -33 -103 -55 -158 -63 -156 -4 1 -23 47 -42 103 -30 89
-36 100 -57 100 l-24 0 0 -136z"/>
<path d="M3930 351 c0 -76 4 -132 10 -136 6 -4 10 5 10 20 0 29 27 75 44 75 6
0 24 -23 39 -50 16 -28 32 -50 38 -50 5 0 9 2 9 4 0 8 -43 80 -58 98 -12 15
-11 21 13 52 15 20 22 36 15 36 -11 0 -29 -18 -79 -80 l-20 -25 -1 93 c0 54
-4 92 -10 92 -6 0 -10 -50 -10 -129z"/>
<path d="M4940 350 c0 -109 3 -132 15 -137 9 -3 19 -2 23 2 4 4 1 10 -5 12
-10 3 -13 39 -13 129 0 76 -4 124 -10 124 -6 0 -10 -50 -10 -130z"/>
<path d="M4470 441 c0 -11 -7 -26 -15 -34 -12 -12 -12 -16 -1 -20 10 -4 14
-26 14 -77 0 -74 11 -100 43 -100 25 0 24 16 -1 23 -18 5 -20 14 -20 81 0 72
1 76 23 77 l22 0 -22 9 c-16 6 -23 18 -23 35 0 14 -4 25 -10 25 -5 0 -10 -9
-10 -19z"/>
<path d="M3460 390 c-21 -18 -22 -20 -5 -14 50 18 72 16 89 -7 26 -38 20 -49
-27 -49 -51 0 -87 -22 -87 -54 0 -47 56 -71 96 -41 25 19 32 19 37 -2 3 -10 5
18 6 63 1 90 -8 111 -54 120 -23 4 -37 0 -55 -16z m95 -90 c10 -17 -23 -59
-51 -66 -30 -8 -60 16 -51 40 11 29 88 48 102 26z"/>
<path d="M3753 395 c-13 -9 -23 -11 -23 -6 0 6 -4 11 -10 11 -6 0 -10 -38 -10
-95 0 -57 4 -95 10 -95 6 0 10 27 10 60 0 77 21 123 55 118 13 -2 25 2 27 7 5
17 -36 17 -59 0z"/>
<path d="M4223 398 c-50 -24 -54 -130 -6 -168 33 -26 64 -26 94 1 l24 20 -25
-8 c-41 -12 -82 -7 -97 13 -27 36 -17 44 57 44 69 0 70 1 70 26 0 30 -50 84
-77 83 -10 0 -28 -5 -40 -11z m75 -20 c7 -7 12 -22 12 -35 0 -21 -4 -23 -55
-23 -59 0 -64 6 -39 45 18 27 61 34 82 13z"/>
<path d="M4717 403 c-4 -3 -20 -6 -37 -5 l-30 1 0 -135 c0 -112 2 -134 15
-134 11 0 15 12 15 49 l0 49 29 -11 c39 -14 78 3 92 40 16 42 5 114 -21 135
-22 18 -51 23 -63 11z m57 -35 c23 -32 20 -94 -4 -118 -22 -22 -42 -25 -71
-10 -27 15 -28 124 -1 139 28 17 60 12 76 -11z"/>
<path d="M5118 397 c-29 -11 -35 -22 -19 -31 5 -3 14 1 21 9 7 8 26 15 41 15
22 0 32 -6 39 -26 15 -39 13 -44 -24 -44 -73 0 -110 -35 -86 -80 15 -29 57
-36 91 -16 26 15 29 15 29 2 0 -9 5 -16 10 -16 6 0 10 32 10 75 0 67 -3 79
-25 100 -26 27 -44 29 -87 12z m86 -95 c19 -31 -36 -79 -75 -67 -28 9 -25 53
4 65 28 11 64 12 71 2z"/>
<path d="M5388 395 c-48 -26 -51 -128 -6 -165 32 -27 70 -25 97 4 12 13 18 26
14 29 -5 3 -17 -3 -26 -14 -53 -61 -122 27 -83 107 13 27 21 34 45 34 20 0 34
-7 41 -20 6 -11 16 -17 22 -14 14 9 -36 54 -60 54 -9 -1 -29 -7 -44 -15z"/>
<path d="M5648 394 c-41 -21 -55 -83 -31 -132 22 -46 58 -60 102 -42 31 12 45
38 15 26 -49 -19 -63 -17 -88 8 -39 38 -33 46 39 46 49 0 67 4 71 15 10 24
-15 71 -42 84 -31 14 -33 14 -66 -5z m70 -16 c5 -7 13 -23 16 -35 7 -22 5 -23
-53 -23 -53 0 -60 2 -54 18 16 46 67 69 91 40z"/>
</g>
</svg>
